<?xml version="1.0" encoding="utf-8"?>
<!-- Generator: Adobe Illustrator 16.0.4, SVG Export Plug-In . SVG Version: 6.00 Build 0)  -->
<!DOCTYPE svg PUBLIC "-//W3C//DTD SVG 1.1//EN" "http://www.w3.org/Graphics/SVG/1.1/DTD/svg11.dtd">
<svg version="1.1" id="Layer_1" xmlns="http://www.w3.org/2000/svg" xmlns:xlink="http://www.w3.org/1999/xlink" x="0px" y="0px"
	 width="134.999px" height="135px" viewBox="0 0 134.999 135" enable-background="new 0 0 134.999 135" xml:space="preserve">
<g>
	<circle fill="#2249B6" cx="67.5" cy="67.5" r="67.5"/>
	<g>
		<path fill="#FFFFFF" d="M67.5,131.229c-35.14,0-63.729-28.589-63.729-63.73c0-35.14,28.588-63.728,63.729-63.728
			c35.142,0,63.73,28.588,63.73,63.728C131.229,102.641,102.642,131.229,67.5,131.229z M67.5,5.802
			c-34.02,0-61.698,27.677-61.698,61.697c0,34.022,27.678,61.7,61.698,61.7c34.022,0,61.699-27.678,61.699-61.7
			C129.198,33.479,101.521,5.802,67.5,5.802z"/>
	</g>
	<path fill="#FFFFFF" d="M30.146,26.607l-2.04,1.823l5.555,6.215l2.041-1.823c2.526-2.258,1.991-4.667,0.648-6.171
		C34.667,24.769,32.267,24.71,30.146,26.607z M33.888,32.19l-3.317-3.711l0.704-0.629c1.366-1.222,2.589-1.216,3.702,0.031
		c0.5,0.559,0.752,1.118,0.751,1.665c-0.001,0.666-0.384,1.344-1.136,2.017L33.888,32.19z"/>
	<polygon fill="#FFFFFF" points="42.77,25.524 41.818,23.865 44.357,22.409 43.541,20.984 41.002,22.44 40.256,21.141 
		43.339,19.373 42.523,17.948 37.874,20.615 42.021,27.845 46.671,25.179 45.853,23.755 	"/>
	<polygon fill="#FFFFFF" points="64.821,20.366 70.184,20.418 70.2,18.775 66.643,18.741 66.661,16.827 69.589,16.855 
		69.605,15.214 66.677,15.185 66.691,13.685 70.248,13.718 70.264,12.077 64.902,12.025 	"/>
	<polygon fill="#FFFFFF" points="103.106,24.795 97.552,27.757 98.856,21.6 98.351,21.219 98.363,21.181 98.339,21.21 
		97.552,20.619 92.543,27.278 93.915,28.309 96.451,24.937 95.456,29.47 96.409,30.186 100.488,27.973 97.951,31.345 99.362,32.407 
		104.372,25.748 	"/>
	
		<rect x="101.545" y="32.195" transform="matrix(0.7413 -0.6712 0.6712 0.7413 5.1339 79.5145)" fill="#FFFFFF" width="8.34" height="1.804"/>
	<path fill="#FFFFFF" d="M119.861,48.258c-0.462-1.239-1.372-1.974-2.434-1.966c-0.259,0.001-0.515,0.05-0.764,0.142
		c-0.834,0.31-1.785,1.108-1.587,3.146c0.136,1.421-0.159,1.646-0.591,1.806c-0.519,0.191-1.031-0.135-1.272-0.787
		c-0.336-0.9-0.104-1.683,0.149-2.182l0.337-0.665l-1.91,0.225l-0.096,0.2c-0.146,0.306-0.575,1.427,0.004,2.985
		c0.454,1.222,1.464,2.007,2.571,1.999c0.301-0.002,0.605-0.06,0.907-0.172c1.73-0.645,1.775-2.282,1.66-3.456
		c-0.123-1.259,0.268-1.404,0.435-1.466c0.58-0.209,0.94,0.398,1.074,0.754c0.163,0.441,0.165,1.105,0.002,1.693l-0.153,0.55
		l1.651-0.13l0.085-0.249C120.124,50.122,120.208,49.188,119.861,48.258z"/>
	<polygon fill="#FFFFFF" points="16.713,78.97 17.38,81.749 18.958,81.371 18.291,78.591 19.696,78.253 20.506,81.631 
		22.084,81.251 20.857,76.142 12.92,78.048 14.147,83.157 15.724,82.779 14.914,79.402 	"/>
	<path fill="#FFFFFF" d="M21.593,88.237c-0.195-1.213,0.171-1.376,0.328-1.445c0.546-0.25,0.933,0.331,1.081,0.664
		c0.186,0.417,0.228,1.062,0.105,1.644l-0.118,0.56l1.622-0.232l0.069-0.253c0.153-0.563,0.177-1.481-0.219-2.369
		c-0.651-1.459-2.041-2.119-3.24-1.583c-0.796,0.354-1.677,1.193-1.357,3.172c0.219,1.372-0.052,1.606-0.458,1.786
		c-0.488,0.221-1.003-0.072-1.277-0.683c-0.379-0.852-0.204-1.627,0.011-2.126l0.294-0.687l-1.871,0.34l-0.082,0.207
		c-0.124,0.309-0.475,1.432,0.188,2.916c0.495,1.11,1.442,1.801,2.473,1.801c0.348,0,0.699-0.078,1.042-0.231
		C21.836,90.979,21.78,89.377,21.593,88.237z"/>
	<polygon fill="#FFFFFF" points="25.165,92.43 26.648,94.579 21.269,98.293 22.281,99.759 27.661,96.046 29.145,98.195 
		30.479,97.274 26.5,91.509 	"/>
	<polygon fill="#FFFFFF" points="35.082,102.635 34.178,103.681 34.771,104.194 30.55,109.075 31.86,110.209 37.362,103.849 	"/>
	<path fill="#FFFFFF" d="M42.983,107.685c-0.481-0.293-1.041-0.456-1.576-0.456c-0.792,0-1.455,0.342-1.818,0.938
		c-0.359,0.588-0.4,1.255-0.139,1.892c-0.967,0.015-1.779,0.398-2.253,1.176c-0.386,0.63-0.452,1.372-0.185,2.093
		c0.249,0.672,0.774,1.279,1.477,1.71c0.591,0.36,1.23,0.553,1.846,0.553c0.902,0,1.674-0.417,2.118-1.145
		c0.482-0.787,0.479-1.695,0.02-2.54c0.686-0.062,1.268-0.413,1.618-0.987c0.319-0.521,0.361-1.155,0.12-1.787
		C43.99,108.547,43.553,108.034,42.983,107.685z M41.057,109.062c0.191-0.311,0.715-0.359,1.144-0.097
		c0.435,0.266,0.63,0.743,0.435,1.062c-0.215,0.352-0.665,0.46-1.282,0.32C40.938,109.854,40.838,109.422,41.057,109.062z
		 M40.51,111.73c0.824,0.909,0.713,1.407,0.466,1.811c-0.278,0.453-1.079,0.556-1.685,0.184c-0.32-0.194-0.557-0.481-0.667-0.805
		c-0.097-0.287-0.079-0.572,0.051-0.785c0.226-0.369,0.534-0.534,0.999-0.534C39.911,111.601,40.186,111.644,40.51,111.73z"/>
	<polygon fill="#FFFFFF" points="47.636,112.489 48.364,112.783 45.95,118.769 47.557,119.417 50.703,111.617 48.153,111.208 	"/>
	<path fill="#FFFFFF" d="M57.357,113.476c-1.81-0.403-3.507,1.07-4.042,3.516c-0.542,2.482,0.362,4.494,2.201,4.896
		c0.201,0.044,0.405,0.067,0.606,0.067c1.635,0,2.953-1.38,3.438-3.597c0.268-1.225,0.199-2.338-0.201-3.218
		C58.96,114.262,58.249,113.67,57.357,113.476z M55.032,117.367c0.315-1.438,1.008-2.368,1.766-2.368
		c0.072,0,0.146,0.007,0.221,0.024c0.392,0.085,0.672,0.369,0.829,0.841c0.182,0.544,0.181,1.276-0.003,2.119
		c-0.346,1.583-1.137,2.548-1.989,2.356c-0.393-0.086-0.671-0.37-0.829-0.844C54.845,118.951,54.847,118.215,55.032,117.367z"/>
	<polygon fill="#FFFFFF" points="70.363,121.284 70.242,119.438 73.097,119.251 72.99,117.634 70.138,117.819 70.044,116.378 
		73.509,116.151 73.402,114.533 68.16,114.875 68.691,123.018 73.935,122.677 73.828,121.059 	"/>
	<polygon fill="#FFFFFF" points="81.502,112.747 82.741,117.32 77.849,113.736 76.732,114.038 78.866,121.912 80.503,121.468 
		79.262,116.894 84.154,120.478 85.271,120.177 83.139,112.303 	"/>
	<polygon fill="#FFFFFF" points="101.303,109.427 97.147,104.378 95.771,105.511 100.959,111.812 105.015,108.475 103.983,107.221 	
		"/>
	<polygon fill="#FFFFFF" points="110.258,87.84 114.473,90.014 108.522,91.205 107.991,92.233 115.244,95.976 116.021,94.469 
		111.808,92.295 117.758,91.104 118.289,90.076 111.037,86.333 	"/>
	<path fill="#FFFFFF" d="M118.223,77.178c-0.41-0.123-0.816-0.192-1.21-0.205c-1.882-0.062-3.338,1.152-3.994,3.332l-0.775,2.566
		l7.812,2.355l0.774-2.564C121.787,79.487,120.11,77.747,118.223,77.178z M118.98,83.043l-4.634-1.398l0.263-0.873
		c0.52-1.725,1.544-2.325,3.088-1.854c1.559,0.471,2.064,1.534,1.548,3.252L118.98,83.043z"/>
	<path fill="#4A4A4A" d="M69.343,84.017c0.009,0,0.018-0.002,0.026-0.002c-0.015,0.002-0.028,0.002-0.044,0.004
		C69.33,84.019,69.337,84.019,69.343,84.017z"/>
	<path fill="#4A4A4A" d="M69.532,83.995v-0.007c-0.055,0.01-0.109,0.021-0.163,0.026C69.471,84.004,69.532,83.995,69.532,83.995z"/>
	<g>
		<path fill="#FFFFFF" d="M67.5,108.516c-22.636,0-41.053-18.416-41.053-41.053c0-22.636,18.417-41.052,41.053-41.052
			c22.637,0,41.052,18.416,41.052,41.052C108.553,90.1,90.138,108.516,67.5,108.516z M67.5,28.442
			c-21.516,0-39.022,17.504-39.022,39.021c0,21.519,17.506,39.021,39.022,39.021c21.517,0,39.021-17.502,39.021-39.021
			C106.521,45.947,89.018,28.442,67.5,28.442z"/>
	</g>
	<g>
		<path fill="#FFFFFF" d="M84.097,78.22l0.238-0.414c0.122-0.22,0.185-0.451,0.185-0.686c0-0.79-0.641-1.433-1.431-1.433
			c-0.465,0-0.901,0.228-1.174,0.618l-0.072,0.126c-2.97,5.095-8.458,8.26-14.326,8.26c-0.699,0-1.419-0.049-2.139-0.146
			l-1.087-0.161c-0.142-0.039-0.261-0.057-0.375-0.057c-0.568,0-1.075,0.341-1.324,0.894c-0.07,0.174-0.106,0.355-0.106,0.538
			c0,0.653,0.418,1.181,1.101,1.377l0.217,0.043c1.266,0.245,2.517,0.371,3.715,0.371C74.226,87.55,80.577,83.976,84.097,78.22z"/>
		<path fill="#FFFFFF" d="M53.281,81.31l0.077,0.086c0.268,0.259,0.619,0.402,0.989,0.402c0.786,0,1.426-0.64,1.426-1.427
			c0-0.376-0.148-0.734-0.409-0.999l-0.1-0.123c-2.78-3.058-4.311-7.007-4.311-11.121c0-9.134,7.431-16.564,16.564-16.564
			c1.211,0,2.441,0.141,3.654,0.418c6.697,1.572,9.765,6.788,9.893,7.01l0.158,0.273l0.003-0.009l0.238,0.484
			c0.215,0.43,0.406,0.849,0.589,1.284c0.197,0.438,0.382,0.925,0.583,1.538l0.06,0.174c0,0,0.086,0.196,0.104,0.229
			c0.089,0.148,0.211,0.27,0.365,0.36c0.056,0.03,0.112,0.05,0.176,0.071c0.104,0.032,0.19,0.046,0.273,0.046
			c0.523,0,0.921-0.409,0.944-0.98l0.002-8.457c-0.03-0.404-0.369-0.722-0.772-0.722c-0.183,0-0.356,0.065-0.504,0.19l-0.678,0.589
			l-0.164,0.115c-0.037,0.023-0.079,0.045-0.152,0.086c-0.104,0.047-0.273,0.102-0.478,0.102c-0.23,0-0.452-0.075-0.653-0.217
			c-0.137-0.108-0.273-0.239-0.478-0.441c-0.083-0.08-0.167-0.159-0.248-0.231c-1.055-0.899-2.18-1.661-3.337-2.257
			c-0.029-0.018-0.162-0.09-0.373-0.188c-2.815-1.522-5.998-2.326-9.205-2.326c-10.708,0-19.419,8.713-19.419,19.422
			C48.098,73.024,49.938,77.706,53.281,81.31z"/>
		<path fill="#FFFFFF" d="M72.55,79.282l-0.033,0.062l0.09,0.052l0.019,0.04c0.235,0.529,0.761,0.871,1.336,0.871
			c0.279,0,0.538-0.082,0.847-0.272c0.389-0.274,0.622-0.723,0.622-1.197c0-0.198-0.039-0.395-0.119-0.582l-4.882-10.88
			l-2.931-6.552l-12.67,28.282l-0.503,1.084l-0.04,0.112l0,0.002l-0.501,1.107l-0.356-0.195c-0.708-0.413-1.512-0.957-2.387-1.616
			c-0.168-0.126-0.332-0.255-0.573-0.443c-0.393-0.312-0.715-0.574-0.936-0.763l-0.325-0.287c-5.908-5.24-9.296-12.745-9.296-20.593
			c0-3.275,0.6-6.545,1.785-9.72c0.034-0.1,0.224-0.642,0.61-1.482c0.437-0.95,1.177-2.364,2.218-3.694l0.18-0.226
			c1.032-1.255,2.188-2.108,2.775-2.5l0.346-0.213c0.254-0.166,0.569-0.373,0.881-0.55c0.132-0.081,0.27-0.158,0.41-0.236
			l1.059-0.548c0.445-0.228,0.61-0.396,0.658-0.452c0.152-0.217,0.22-0.477,0.188-0.732c-0.062-0.505-0.458-0.866-1.021-0.919
			l-7.283,0.908c-0.611,0.073-1.128,0.153-1.586,0.247c-0.377,0.089-0.641,0.42-0.641,0.808c0,0.241,0.11,0.472,0.297,0.631
			l0.085,0.077c0.167,0.144,0.348,0.299,0.533,0.475l0.137,0.148c0.1,0.097,0.178,0.199,0.245,0.319
			c0.056,0.104,0.088,0.204,0.105,0.321c0.007,0.064,0.008,0.128,0.003,0.231c-0.003,0.042-0.008,0.083-0.016,0.123
			c-0.02,0.108-0.079,0.249-0.177,0.428c-0.005,0.007-0.619,1.047-0.704,1.206c-0.413,0.776-1.222,2.372-1.999,4.34
			c-0.176,0.45-0.338,0.892-0.483,1.315c-0.266,0.789-0.473,1.476-0.65,2.165c-0.629,2.463-0.949,4.997-0.949,7.532
			c0,11.131,6.075,21.388,15.856,26.765l0.794,0.427c0.232,0.097,0.476,0.146,0.723,0.146c0.699,0,1.337-0.388,1.666-1.021
			L67.5,67.982L72.55,79.282z"/>
		<path fill="#FFFFFF" d="M97.123,59.942c-0.169-0.655-0.379-1.35-0.642-2.127c-0.144-0.422-0.307-0.861-0.511-1.381
			c-0.749-1.906-1.554-3.494-1.967-4.271c-0.055-0.101-0.716-1.228-0.753-1.287c-0.08-0.154-0.115-0.276-0.13-0.35
			c-0.005-0.038-0.012-0.08-0.018-0.167c-0.002-0.057,0-0.12,0.011-0.206c0.013-0.102,0.05-0.205,0.114-0.324
			c0.059-0.104,0.133-0.201,0.227-0.292l0.146-0.155c0.18-0.171,0.358-0.326,0.558-0.497l0.057-0.052
			c0.188-0.159,0.297-0.391,0.297-0.632c0-0.399-0.269-0.72-0.689-0.818c-0.426-0.086-0.942-0.166-1.537-0.236l-7.149-0.906
			l-0.215,0.001c-0.492,0.052-0.879,0.43-0.939,0.918c-0.03,0.25,0.034,0.511,0.185,0.724c0.084,0.097,0.265,0.255,0.662,0.457
			l0.737,0.379c0.278,0.144,0.515,0.276,0.729,0.408c0.294,0.166,0.576,0.349,0.882,0.549l0.213,0.141l0.141,0.078
			c0.593,0.394,1.748,1.252,2.825,2.565l0.121,0.154c1.063,1.36,1.811,2.793,2.249,3.757c0.356,0.782,0.568,1.381,0.588,1.472
			c1.179,3.131,1.776,6.385,1.776,9.668c0,7.848-3.389,15.353-9.296,20.593l-0.323,0.285c-0.245,0.21-0.584,0.483-1.005,0.817
			l-0.068,0.053c-0.146,0.113-0.292,0.227-0.438,0.338c-0.861,0.65-1.641,1.178-2.377,1.611l-0.368,0.202l-1.305-2.897l-0.106-0.217
			c-0.229-0.555-0.763-0.914-1.361-0.914c-0.811,0-1.473,0.662-1.473,1.476c0,0.177,0.033,0.354,0.103,0.529l1.972,4.278
			c0.301,0.693,0.982,1.143,1.732,1.143c0.143,0,0.284-0.021,0.464-0.065c0.12-0.03,0.245-0.077,0.385-0.145l0.117-0.064
			c10.079-5.311,16.34-15.664,16.34-27.022C98.081,64.977,97.76,62.43,97.123,59.942z"/>
	</g>
	<circle fill="#FFFFFF" cx="118.817" cy="65.084" r="1.604"/>
	<path fill="#FFFFFF" d="M80.552,16.193c0.24-1.24-0.237-2.708-2.311-3.113l-2.831-0.553l-1.6,8.183l1.773,0.346L76.182,18
		l0.445,0.089l0.558,1.726c0.375,1.167,1.079,1.856,2.095,2.056c0.26,0.05,0.512,0.065,0.769,0.054l0.336-0.021l0.294-1.5
		l-0.513,0.027c-0.087,0.006-0.176-0.006-0.27-0.021c-0.219-0.047-0.602-0.208-0.875-0.768c-0.02-0.041-0.036-0.088-0.054-0.135
		c-0.039-0.092-0.08-0.183-0.108-0.297l0,0l-0.341-0.957C79.576,18.098,80.328,17.344,80.552,16.193z M77.558,16.594l-1.063-0.207
		l0.373-1.898l1.06,0.204c0.716,0.14,0.99,0.506,0.864,1.156c-0.146,0.746-0.645,0.773-0.808,0.781
		C77.855,16.638,77.714,16.625,77.558,16.594z"/>
	<path fill="#FFFFFF" d="M60.787,18.097c-0.927,1.142-1.861,1.567-2.461,1.73c-0.136,0.035-0.276,0.072-0.425,0.088
		c-0.023,0.001-0.042,0.003-0.06,0.006c-0.074,0.005-0.151,0.001-0.226,0.003c-0.936-0.05-1.548-0.405-1.949-0.843
		c-0.033-0.037-0.066-0.078-0.098-0.116c-0.127-0.158-0.223-0.322-0.307-0.481c-0.065-0.127-0.121-0.252-0.164-0.375
		c-0.004-0.012-0.008-0.025-0.012-0.036c-0.14-0.414-0.163-0.795-0.144-1.108c0.012-0.133,0.022-0.273,0.05-0.396
		c0.013-0.071,0.029-0.136,0.042-0.187c0.322-1.118,1.202-1.595,1.69-1.774c0.818-0.282,1.676-0.17,2.318,0.013
		c0.067,0.016,0.131,0.037,0.197,0.058c0.04,0.012,0.079,0.025,0.118,0.04c0.124,0.042,0.248,0.087,0.367,0.138
		c0.215,0.093,0.346,0.164,0.346,0.164l-0.384-1.694h-0.001l-0.052-0.236c0,0-1.937-0.645-3.87,0.174
		c-0.096,0.038-0.183,0.086-0.275,0.131c-0.089,0.044-0.176,0.089-0.266,0.141c-0.203,0.114-0.394,0.246-0.574,0.387
		c-0.019,0.016-0.039,0.033-0.057,0.047c-0.167,0.138-0.326,0.285-0.467,0.444c-0.138,0.148-0.274,0.315-0.403,0.508
		c-0.127,0.197-0.243,0.401-0.333,0.614c-0.021,0.05-0.033,0.105-0.054,0.155c-0.075,0.2-0.136,0.405-0.178,0.615
		c-0.016,0.086-0.024,0.179-0.035,0.271c-0.064,0.497-0.057,1.011,0.052,1.545c0.078,0.373,0.219,0.846,0.501,1.341
		c0,0,0.002,0.003,0.002,0.006c0.117,0.206,0.257,0.41,0.425,0.61c0.004,0.002,0.004,0.004,0.007,0.007
		c0.165,0.196,0.357,0.384,0.578,0.559c0.015,0.013,0.031,0.023,0.044,0.033c0.222,0.173,0.472,0.333,0.759,0.471
		c0.042,0.016,0.086,0.032,0.129,0.049c0.44,0.187,0.909,0.298,1.398,0.332c0.102,0.008,0.203,0.013,0.302,0.014
		c0.103,0.001,0.204,0.009,0.306,0.003c2.112-0.087,3.594-1.509,3.594-1.509L60.787,18.097z"/>
	<path fill="#FFFFFF" d="M111.677,44.149c-1.381-0.502-2.09-1.248-2.439-1.759c-0.078-0.12-0.159-0.238-0.222-0.375
		c-0.009-0.02-0.018-0.036-0.024-0.054c-0.03-0.067-0.052-0.142-0.078-0.213c-0.26-0.899-0.123-1.593,0.161-2.117
		c0.023-0.042,0.05-0.086,0.078-0.13c0.104-0.17,0.229-0.315,0.356-0.446c0.096-0.103,0.197-0.198,0.299-0.277
		c0.011-0.009,0.02-0.018,0.03-0.023c0.346-0.267,0.697-0.415,0.997-0.499c0.133-0.031,0.269-0.068,0.391-0.082
		c0.073-0.011,0.141-0.019,0.191-0.022c1.163-0.061,1.899,0.615,2.231,1.017c0.532,0.683,0.707,1.531,0.746,2.198
		c0.005,0.067,0.007,0.137,0.009,0.204c0,0.043,0.001,0.083,0.001,0.125c0.002,0.132-0.001,0.262-0.012,0.392
		c-0.018,0.233-0.041,0.38-0.041,0.38l1.477-0.917l0,0l0.203-0.127c0,0-0.021-2.042-1.428-3.603
		c-0.067-0.077-0.142-0.142-0.213-0.214c-0.071-0.07-0.144-0.138-0.222-0.207c-0.176-0.153-0.358-0.293-0.553-0.416
		c-0.02-0.012-0.042-0.025-0.065-0.038c-0.183-0.114-0.373-0.214-0.569-0.297c-0.187-0.081-0.386-0.156-0.611-0.215
		c-0.23-0.056-0.461-0.1-0.69-0.115c-0.053-0.004-0.111,0.002-0.165,0.002c-0.213-0.006-0.426,0.001-0.639,0.032
		c-0.087,0.01-0.178,0.036-0.269,0.054c-0.489,0.101-0.973,0.275-1.442,0.555c-0.327,0.196-0.729,0.483-1.104,0.912
		c0,0.001-0.002,0.001-0.005,0.004c-0.155,0.176-0.302,0.375-0.436,0.6c-0.001,0.003-0.003,0.008-0.007,0.009
		c-0.13,0.22-0.245,0.464-0.337,0.729c-0.008,0.018-0.013,0.035-0.019,0.053c-0.088,0.267-0.159,0.555-0.198,0.87
		c0.002,0.046,0,0.091-0.002,0.139c-0.032,0.476,0.016,0.957,0.143,1.43c0.024,0.101,0.053,0.195,0.085,0.291
		c0.033,0.098,0.059,0.195,0.098,0.29c0.771,1.967,2.599,2.905,2.599,2.905L111.677,44.149z"/>
	<polygon fill="#FFFFFF" points="23.207,51.634 23.278,51.457 23.278,51.457 23.358,51.263 19.623,47.982 24.587,48.26 
		24.868,47.575 24.868,47.575 25.042,47.149 18.417,41.329 17.721,43.024 21.742,46.432 16.496,46.018 16.037,47.142 20.065,50.525 
		14.813,50.135 14.098,51.877 22.904,52.373 23.205,51.633 	"/>
	<path fill="#FFFFFF" d="M22.832,34.829l-0.686,0.961l4.706,7.763l1.076-1.507l-1.193-1.962l1.621-2.271l2.243,0.489l1.104-1.548
		L22.832,34.829z M25.806,38.783l-1.168-1.91l2.186,0.484L25.806,38.783z"/>
	<path fill="#FFFFFF" d="M90.073,16.773l-1.084-0.467l-6.591,6.243l1.7,0.732l1.665-1.582l2.565,1.103l-0.004,2.296l1.747,0.751
		L90.073,16.773z M86.84,20.518l1.618-1.547l-0.011,2.239L86.84,20.518z"/>
	<path fill="#FFFFFF" d="M104.335,97.154l-0.74,0.892l4.04,7.941l1.162-1.398l-1.025-2.007l1.754-2.105l2.16,0.643l1.192-1.436
		L104.335,97.154z M106.958,101.241l-1.005-1.954l2.105,0.632L106.958,101.241z"/>
	<path fill="#FFFFFF" d="M94.645,111.01l-2.909,1.542l0.76,1.433l1.335-0.708l0.479,0.905c-0.271,0.345-0.68,0.671-1.177,0.936
		c-1.292,0.684-2.725,0.189-3.454-1.189c-0.369-0.695-0.467-1.396-0.282-2.023c0.043-0.146,0.119-0.275,0.193-0.404
		c0.067-0.112,0.137-0.223,0.219-0.318c0.011-0.014,0.024-0.028,0.037-0.042c0.456-0.521,1.06-0.822,1.504-0.985
		c0.007-0.002,0.014-0.006,0.022-0.007c0.085-0.032,0.16-0.056,0.23-0.076c1.074-0.304,2.084-0.214,2.084-0.214l-0.809-1.537
		c0,0-2.722-0.102-4.282,1.703c-0.011,0.014-0.022,0.026-0.035,0.04c-0.013,0.016-0.026,0.028-0.041,0.045l0.011-0.004
		c-0.339,0.396-0.607,0.842-0.773,1.328c-0.38,1.086-0.271,2.244,0.313,3.348c0.779,1.468,2.129,2.31,3.703,2.31
		c0.721,0,1.452-0.187,2.119-0.54c1.118-0.593,1.823-1.516,2.16-1.96l0.295-0.369L94.645,111.01z"/>
	<circle fill="#FFFFFF" cx="16.067" cy="65.084" r="1.604"/>
</g>
</svg>
